<?xml version="1.0" encoding="utf-8"?>
<svg version="1.1" xmlns:xlink="http://www.w3.org/1999/xlink" width="40px" height="40px" viewBox="24 312 40 40" xmlns="http://www.w3.org/2000/svg">
  <path d="M 44 312  C 55.2 312  64 320.8  64 332  C 64 343.2  55.2 352  44 352  C 32.8 352  24 343.2  24 332  C 24 320.8  32.8 312  44 312  Z " fill-rule="nonzero" fill="rgba(255, 255, 255, 1)" stroke="none" class="fill" />
  <path d="M 44 312.5  C 54.92 312.5  63.5 321.08  63.5 332  C 63.5 342.92  54.92 351.5  44 351.5  C 33.08 351.5  24.5 342.92  24.5 332  C 24.5 321.08  33.08 312.5  44 312.5  Z " stroke-width="1" stroke-dasharray="0" stroke="rgba(121, 121, 121, 1)" fill="none" class="stroke" stroke-dashoffset="0.5" />
  <path d="M 44 342  C 38.4 342  34 337.6  34 332  C 34 326.4  38.4 322  44 322  C 49.6 322  54 326.4  54 332  C 54 337.6  49.6 342  44 342  " fill-rule="nonzero" fill="rgba(121, 121, 121, 1)" stroke="none" class="stroke btn_check" />
</svg>