<?xml version="1.0" encoding="utf-8"?>
<svg version="1.1" xmlns:xlink="http://www.w3.org/1999/xlink" width="114px" height="55px" xmlns="http://www.w3.org/2000/svg">
  <defs>
    <pattern id="BGPattern" patternUnits="userSpaceOnUse" alignment="0 0" imageRepeat="None" />
    <mask fill="white" id="Clip6">
      <path d="M 27.07627118644075 46  L 0 46  L 0 0  L 114 0  L 114 46  L 47.07627118644075 46  L 37.28813559322032 54.983050847457626  L 27.07627118644075 46  Z " fill-rule="evenodd" />
    </mask>
  </defs>
  <g transform="matrix(1 0 0 1 -749 -204 )">
    <path d="M 27.07627118644075 46  L 0 46  L 0 0  L 114 0  L 114 46  L 47.07627118644075 46  L 37.28813559322032 54.983050847457626  L 27.07627118644075 46  Z " fill-rule="nonzero" fill="rgba(0, 0, 0, 0.6941176470588235)" stroke="none" transform="matrix(1 0 0 1 749 204 )" class="fill" />
    <path d="M 27.07627118644075 46  L 0 46  L 0 0  L 114 0  L 114 46  L 47.07627118644075 46  L 37.28813559322032 54.983050847457626  L 27.07627118644075 46  Z " stroke-width="0" stroke-dasharray="0" stroke="rgba(121, 121, 121, 1)" fill="none" transform="matrix(1 0 0 1 749 204 )" class="stroke" mask="url(#Clip6)" />
  </g>
</svg>