<?xml version="1.0" encoding="utf-8"?>
<svg version="1.1" xmlns:xlink="http://www.w3.org/1999/xlink" width="203px" height="203px" xmlns="http://www.w3.org/2000/svg">
  <defs>
    <pattern id="BGPattern" patternUnits="userSpaceOnUse" alignment="0 0" imageRepeat="None" />
    <mask fill="white" id="Clip2">
      <path d="M 0 101.5  C 0 44.66  44.66 0  101.5 0  C 158.34 0  203 44.66  203 101.5  C 203 158.34  158.34 203  101.5 203  C 44.66 203  0 158.34  0 101.5  Z " fill-rule="evenodd" />
    </mask>
  </defs>
  <g transform="matrix(1 0 0 1 -729 -567 )">
    <path d="M 0 101.5  C 0 44.66  44.66 0  101.5 0  C 158.34 0  203 44.66  203 101.5  C 203 158.34  158.34 203  101.5 203  C 44.66 203  0 158.34  0 101.5  Z " fill-rule="nonzero" fill="rgba(51, 112, 255, 1)" stroke="none" transform="matrix(1 0 0 1 729 567 )" class="fill" />
    <path d="M 0 101.5  C 0 44.66  44.66 0  101.5 0  C 158.34 0  203 44.66  203 101.5  C 203 158.34  158.34 203  101.5 203  C 44.66 203  0 158.34  0 101.5  Z " stroke-width="0" stroke-dasharray="0" stroke="rgba(121, 121, 121, 1)" fill="none" transform="matrix(1 0 0 1 729 567 )" class="stroke" mask="url(#Clip2)" />
  </g>
</svg>