<?xml version="1.0" encoding="utf-8"?>
<svg version="1.1" xmlns:xlink="http://www.w3.org/1999/xlink" width="12px" height="12px" viewBox="603 274 12 12" xmlns="http://www.w3.org/2000/svg">
  <path d="M 609 274  C 612.36 274  615 276.64  615 280  C 615 283.36  612.36 286  609 286  C 605.64 286  603 283.36  603 280  C 603 276.64  605.64 274  609 274  Z " fill-rule="nonzero" fill="rgba(255, 255, 255, 1)" stroke="none" class="fill" />
  <path d="M 609 274.5  C 612.08 274.5  614.5 276.92  614.5 280  C 614.5 283.08  612.08 285.5  609 285.5  C 605.92 285.5  603.5 283.08  603.5 280  C 603.5 276.92  605.92 274.5  609 274.5  Z " stroke-width="1" stroke-dasharray="0" stroke="rgba(121, 121, 121, 1)" fill="none" class="stroke" stroke-dashoffset="0.5" />
  <path d="M 609 283  C 607.32 283  606 281.68  606 280  C 606 278.32  607.32 277  609 277  C 610.68 277  612 278.32  612 280  C 612 281.68  610.68 283  609 283  " fill-rule="nonzero" fill="rgba(121, 121, 121, 1)" stroke="none" class="stroke btn_check" />
</svg>