<?xml version="1.0" encoding="utf-8"?>
<svg version="1.1" xmlns:xlink="http://www.w3.org/1999/xlink" width="12px" height="12px" viewBox="603 336 12 12" xmlns="http://www.w3.org/2000/svg">
  <path d="M 609 336  C 612.36 336  615 338.64  615 342  C 615 345.36  612.36 348  609 348  C 605.64 348  603 345.36  603 342  C 603 338.64  605.64 336  609 336  Z " fill-rule="nonzero" fill="rgba(240, 240, 240, 1)" stroke="none" class="fill" />
  <path d="M 609 336.5  C 612.08 336.5  614.5 338.92  614.5 342  C 614.5 345.08  612.08 347.5  609 347.5  C 605.92 347.5  603.5 345.08  603.5 342  C 603.5 338.92  605.92 336.5  609 336.5  Z " stroke-width="1" stroke-dasharray="0" stroke="rgba(121, 121, 121, 1)" fill="none" class="stroke" stroke-dashoffset="0.5" />
  <path d="M 609 345  C 607.32 345  606 343.68  606 342  C 606 340.32  607.32 339  609 339  C 610.68 339  612 340.32  612 342  C 612 343.68  610.68 345  609 345  " fill-rule="nonzero" fill="rgba(121, 121, 121, 1)" stroke="none" class="stroke btn_check" />
</svg>