<?xml version="1.0" encoding="utf-8"?>
<svg version="1.1" xmlns:xlink="http://www.w3.org/1999/xlink" width="12px" height="12px" viewBox="596 508 12 12" xmlns="http://www.w3.org/2000/svg">
  <path d="M 602 508  C 605.36 508  608 510.64  608 514  C 608 517.36  605.36 520  602 520  C 598.64 520  596 517.36  596 514  C 596 510.64  598.64 508  602 508  Z " fill-rule="nonzero" fill="rgba(240, 240, 240, 1)" stroke="none" class="fill" />
  <path d="M 602 508.5  C 605.08 508.5  607.5 510.92  607.5 514  C 607.5 517.08  605.08 519.5  602 519.5  C 598.92 519.5  596.5 517.08  596.5 514  C 596.5 510.92  598.92 508.5  602 508.5  Z " stroke-width="1" stroke-dasharray="0" stroke="rgba(121, 121, 121, 1)" fill="none" class="stroke" stroke-dashoffset="0.5" />
  <path d="M 602 517  C 600.32 517  599 515.68  599 514  C 599 512.32  600.32 511  602 511  C 603.68 511  605 512.32  605 514  C 605 515.68  603.68 517  602 517  " fill-rule="nonzero" fill="rgba(121, 121, 121, 1)" stroke="none" class="stroke btn_check" />
</svg>